# 3ds Max Wavefront OBJ Exporter v0.97b - (c)2007 guruware
# File Created: 21.08.2016 14:51:56

#
# object food_mesh
#

v  0.0570 0.2849 -0.0213
v  0.2586 0.0744 0.0890
v  0.0318 0.1301 -0.1934
v  -0.2698 0.1318 -0.1259
v  -0.2222 0.1363 0.1988
v  0.0729 0.2785 0.2872
v  0.2511 -0.0711 0.1346
v  0.2698 -0.1702 -0.1667
v  -0.0386 -0.1017 -0.2872
v  -0.1905 -0.2093 0.0522
v  -0.0979 0.0099 0.2383
v  0.1963 -0.2849 -0.1606
# 12 vertices

vn 0.2273 0.9225 -0.3120
vn 0.9301 0.3611 0.0675
vn 0.2630 0.5582 -0.7869
vn -0.8141 0.3817 -0.4376
vn -0.7675 0.3361 0.5459
vn 0.2040 0.6616 0.7216
vn 0.6578 -0.4391 0.6119
vn 0.8631 -0.1351 -0.4866
vn -0.2355 -0.2443 -0.9407
vn -0.5559 -0.7876 0.2658
vn -0.1809 -0.4027 0.8973
vn 0.3455 -0.8987 -0.2702
# 12 vertex normals

vt 0.6000 1.0000 4.0000
vt 0.5000 0.6476 4.0000
vt 0.7000 0.6476 4.0000
vt 0.8000 1.0000 4.0000
vt 0.9000 0.6476 4.0000
vt 0.0000 1.0000 4.0000
vt -0.1000 0.6476 4.0000
vt 0.1000 0.6476 4.0000
vt 0.2000 1.0000 4.0000
vt 0.3000 0.6476 4.0000
vt 0.4000 1.0000 4.0000
vt 0.4000 0.3524 4.0000
vt 0.6000 0.3524 4.0000
vt 0.8000 0.3524 4.0000
vt -0.2000 0.3524 4.0000
vt 0.0000 0.3524 4.0000
vt 0.2000 0.3524 4.0000
vt 0.7000 0.0000 4.0000
vt -0.1000 0.0000 4.0000
vt 0.1000 0.0000 4.0000
vt 0.3000 0.0000 4.0000
vt 0.5000 0.0000 4.0000
# 22 texture coords

g food_mesh
s 1
f 1/1/1 2/2/2 3/3/3 
f 1/4/1 3/3/3 4/5/4 
f 1/6/1 4/7/4 5/8/5 
f 1/9/1 5/8/5 6/10/6 
f 1/11/1 6/10/6 2/2/2 
f 2/2/2 7/12/7 8/13/8 
f 3/3/3 8/13/8 9/14/9 
f 4/7/4 9/15/9 10/16/10 
f 5/8/5 10/16/10 11/17/11 
f 6/10/6 11/17/11 7/12/7 
f 8/13/8 3/3/3 2/2/2 
f 9/14/9 4/5/4 3/3/3 
f 10/16/10 5/8/5 4/7/4 
f 11/17/11 6/10/6 5/8/5 
f 7/12/7 2/2/2 6/10/6 
f 12/18/12 9/14/9 8/13/8 
f 12/19/12 10/16/10 9/15/9 
f 12/20/12 11/17/11 10/16/10 
f 12/21/12 7/12/7 11/17/11 
f 12/22/12 8/13/8 7/12/7 
# 0 polygons - 20 triangles

